<?xml version="1.0" standalone="no"?><!DOCTYPE svg PUBLIC "-//W3C//DTD SVG 1.1//EN" "http://www.w3.org/Graphics/SVG/1.1/DTD/svg11.dtd"><svg t="1772601298500" class="icon" viewBox="0 0 1024 1024" version="1.1" xmlns="http://www.w3.org/2000/svg" p-id="17697" xmlns:xlink="http://www.w3.org/1999/xlink" width="200" height="200"><path d="M847.36 359.424c-24.795429 0-44.909714 18.432-44.909714 41.106286v455.606857c0 15.945143-14.189714 28.964571-31.670857 28.964571H157.988571c-17.481143 0-31.670857-13.019429-31.670857-28.964571V190.171429c0-15.945143 14.189714-28.964571 31.670857-28.964572h459.483429c24.795429 0 44.909714-18.432 44.909714-41.106286 0-22.674286-20.114286-41.106286-44.909714-41.106285H158.061714C91.062857 78.994286 36.571429 128.877714 36.571429 190.171429v665.965714c0 61.293714 54.491429 111.177143 121.417142 111.177143h612.790858c66.998857 0 121.417143-49.883429 121.417142-111.177143v-455.68c0-22.674286-20.114286-41.033143-44.836571-41.033143" fill="#FFFFFF" p-id="17698"></path><path d="M464.457143 359.424H234.569143c-24.722286 0-44.909714 21.284571-44.909714 47.542857 0 26.185143 20.187429 47.542857 44.909714 47.542857H464.457143c24.795429 0 44.909714-21.357714 44.909714-47.542857 0-26.258286-20.114286-47.542857-44.909714-47.542857M189.732571 617.252571c0 26.185143 20.187429 47.542857 44.909715 47.542858h459.556571c24.722286 0 44.836571-21.357714 44.836572-47.542858 0-26.258286-20.114286-47.542857-44.836572-47.542857H234.642286c-24.722286 0-44.909714 21.284571-44.909715 47.542857" fill="#FFFFFF" p-id="17699"></path><path d="M964.973714 65.024a46.372571 46.372571 0 0 0-62.902857 0L566.930286 371.712a38.985143 38.985143 0 0 0-13.385143 28.818286c0 10.605714 4.754286 20.845714 13.385143 28.818285a46.445714 46.445714 0 0 0 62.902857 0L965.046857 122.587429a37.595429 37.595429 0 0 0 0-57.636572" fill="#FFFFFF" p-id="17700"></path></svg>