<?xml version="1.0" standalone="no"?><!DOCTYPE svg PUBLIC "-//W3C//DTD SVG 1.1//EN" "http://www.w3.org/Graphics/SVG/1.1/DTD/svg11.dtd"><svg t="1760948200464" class="icon" viewBox="0 0 1024 1024" version="1.1" xmlns="http://www.w3.org/2000/svg" p-id="10381" xmlns:xlink="http://www.w3.org/1999/xlink" width="16" height="16"><path d="M916.6848 194.3552H107.3152c-22.016 0-39.936 17.92-39.936 39.936v532.992c0 22.016 17.92 39.936 39.936 39.936h809.472c22.016 0 39.936-17.92 39.936-39.936V234.2912c-0.1024-22.016-18.0224-39.936-40.0384-39.936z m-15.36 55.296v290.6112c-22.3232-44.032-44.1344-69.12-64.8192-74.752-12.1856-3.2768-24.1664 0-34.6112 9.5232-22.8352 20.7872-39.0144 51.712-54.4768 82.2272-5.0176-10.8544-10.1376-22.016-15.1552-33.0752-26.9312-59.4944-54.784-121.0368-89.4976-154.9312-14.7456-14.336-30.8224-20.5824-47.7184-18.3296-46.6944 6.144-89.6 76.1856-131.1744 145.92-29.9008-15.4624-53.9648-15.4624-73.3184 0.1024-23.4496 18.8416-46.1824 47.5136-68.1984 75.3664-0.7168 0.9216-1.536 1.9456-2.2528 2.8672-11.264-26.5216-21.4016-61.0304-31.4368-94.8224-15.9744-54.272-32.4608-110.2848-56.2176-147.1488-12.1856-18.944-24.9856-20.8896-33.5872-19.1488-16.2816 3.1744-41.6768 22.016-76.288 144.896V249.6512h778.752zM898.8672 570.368c-13.9264 34.7136-33.28 67.1744-59.5968 84.2752-7.3728 4.8128-14.0288 6.144-20.8896 4.096-20.992-6.144-41.984-41.5744-62.6688-84.1728l3.072-6.144c15.4624-30.6176 31.4368-62.3616 53.3504-82.2272 6.7584-6.144 13.2096-7.9872 20.3776-6.0416 23.04 6.3488 47.5136 48.3328 66.3552 90.2144z m-162.9184 9.3184c-21.2992 40.96-42.1888 72.3968-77.6192 63.488-27.9552-6.9632-64.9216-40.5504-100.5568-73.0112-25.4976-23.1424-51.712-47.0016-76.6976-63.3856 37.4784-62.7712 79.36-131.3792 116.6336-136.2944 10.752-1.4336 20.8896 2.7648 31.232 12.8 32.0512 31.232 59.0848 91.0336 85.2992 148.8896 7.3728 16.5888 14.5408 32.5632 21.7088 47.5136z m-279.8592-69.8368c-29.9008 50.176-60.5184 100.0448-85.2992 110.592-6.7584 2.8672-12.5952 2.9696-18.2272 0.3072-9.1136-4.3008-17.5104-15.2576-25.1904-30.3104 2.3552-2.9696 4.7104-5.9392 6.9632-8.8064 21.504-27.136 43.6224-55.1936 65.7408-72.9088 15.36-12.288 34.6112-9.8304 56.0128 1.1264z m-333.4144 30.1056c4.608-19.8656 9.9328-41.8816 15.9744-64 34.6112-127.1808 57.856-141.2096 64.2048-142.4384 4.608-0.9216 9.6256 5.12 13.0048 10.3424 22.1184 34.4064 38.1952 89.088 53.8624 142.0288 11.9808 40.7552 23.1424 78.5408 36.4544 106.7008-16.5888 20.48-33.4848 39.936-50.5856 53.6576-24.2688 19.5584-45.3632 24.8832-66.3552 16.896-26.8288-10.1376-49.152-30.208-66.56-59.5968v-63.5904z m0 211.968V630.4768c17.1008 22.016 37.7856 37.9904 61.1328 46.7968 8.2944 3.1744 16.384 4.608 24.3712 4.608 38.7072 0 72.9088-34.7136 105.6768-74.6496 8.8064 15.0528 18.6368 26.0096 30.208 31.5392 10.8544 5.12 22.528 5.12 34.5088 0 30.6176-13.0048 61.7472-63.7952 94.6176-118.784 23.6544 15.6672 49.152 38.8096 74.24 61.6448 38.8096 35.328 75.4688 68.608 107.2128 76.4928 23.8592 5.9392 44.544-1.2288 63.1808-21.9136 9.728-10.8544 18.2272-24.4736 26.4192-39.5264 21.4016 42.2912 42.7008 73.8304 68.5056 81.408 3.8912 1.1264 7.7824 1.7408 11.776 1.7408 8.6016 0 17.2032-2.7648 25.6-8.2944 20.8896-13.6192 37.7856-35.1232 51.2-59.5968v140.0832H122.6752z" fill="#FFFFFF" p-id="10382"></path></svg>