<?xml version="1.0" standalone="no"?><!DOCTYPE svg PUBLIC "-//W3C//DTD SVG 1.1//EN" "http://www.w3.org/Graphics/SVG/1.1/DTD/svg11.dtd"><svg t="1761029291604" class="icon" viewBox="0 0 1117 1024" version="1.1" xmlns="http://www.w3.org/2000/svg" p-id="19450" xmlns:xlink="http://www.w3.org/1999/xlink" width="17.453125" height="16"><path d="M1016.78453 301.056657a492.217734 492.217734 0 0 0-108.683537-156.718403c-46.545412-45.242141-100.724272-80.802836-161.186763-105.658086A517.584984 517.584984 0 0 0 549.701318 0.000931c-68.421756 0-134.842059 13.079261-197.352547 38.772328a507.810447 507.810447 0 0 0-161.186763 105.658086c-46.545412 45.288686-83.083561 97.931547-108.683538 156.764948a479.417746 479.417746 0 0 0-39.749782 191.767099c0 66.559939 13.451624 131.164972 39.842873 191.906734a492.217734 492.217734 0 0 0 108.730083 156.764949c46.545412 45.242141 100.677727 80.75629 161.140217 105.658086 62.510489 25.693068 128.930792 38.772328 197.352548 38.772328 68.514847 0 134.93515-13.032715 197.399094-38.772328a507.810447 507.810447 0 0 0 161.186762-105.658086c46.545412-45.288686 83.083561-97.931547 108.683538-156.764949a478.486838 478.486838 0 0 0 39.889418-191.906734 482.769016 482.769016 0 0 0-40.122145-191.906735z m-159.18531 491.379917c-82.245743 79.965018-191.627462 124.090069-307.944447 124.090069-116.27044 0-225.698704-44.125051-307.944447-124.090069C159.464582 712.425011 114.03626 606.022198 114.03626 492.916846c0-113.105352 45.381777-219.461619 127.62752-299.426636s191.674008-124.090069 307.944448-124.090069c116.363531 0 225.745249 44.125051 307.990992 124.090069 82.245743 79.965018 127.580975 186.367831 127.580975 299.426636 0 113.105352-45.335232 219.461619-127.580975 299.473183z" fill="#1296db" p-id="19451"></path><path d="M675.001568 549.143704a219.368528 219.368528 0 0 0 91.508281-178.548201c0-120.645709-97.09373-218.903074-216.622349-218.903074-119.482073 0-216.622349 98.164274-216.622348 218.903074 0 73.634842 36.165785 138.798419 91.554825 178.548201a289.186646 289.186646 0 0 0-156.113312 205.172178 35.374513 35.374513 0 0 0 34.49015 42.077052 35.141786 35.141786 0 0 0 34.443605-28.718519c19.549073-102.399907 108.823174-176.779476 212.153989-176.779476 103.470451 0 192.604916 74.379569 212.153989 176.779476a35.141786 35.141786 0 0 0 41.099599 28.113429 35.467604 35.467604 0 0 0 27.834157-41.471962 287.836829 287.836829 0 0 0-155.880586-205.172178z m-125.114068-326.469521c80.75629 0 146.431867 66.327212 146.431867 147.92132s-65.629031 147.781684-146.431867 147.781684c-80.709745 0-146.385321-66.327212-146.385321-147.92132s65.629031-147.781684 146.385321-147.781684z" fill="#1296db" p-id="19452"></path></svg>